{"title":"The.Curse.of.Oak.Island.S03E03.Time.to.Dig.HDTV.x264-W4F","uid":12835510,"size":484126984,"categoryP":"video","categoryS":"tv_shows","magnet":"?xt=urn:btih:b3e2a9e7b8e47ddbd93ede03e11558784155a8e8&amp;dn=The.Curse.of.Oak.Island.S03E03.Time.to.Dig.HDTV.x264-W4F&amp;tr=udp%3A%2F%2Ftracker.leechers-paradise.org%3A6969&amp;tr=udp%3A%2F%2Fzer0day.ch%3A1337&amp;tr=udp%3A%2F%2Fopen.demonii.com%3A1337&amp;tr=udp%3A%2F%2Ftracker.coppersurfer.tk%3A6969&amp;tr=udp%3A%2F%2Fexodus.desync.com%3A6969","seeders":0,"leechers":1,"uploader":"TheRival","files":4,"time":1448444726,"description":"\nVideo\r\nID                                       : 1\r\nFormat                                   : AVC\r\nFormat/Info                              : Advanced Video Codec\r\nFormat profile                           :   \r\nFormat settings, CABAC                   : Yes\r\nFormat settings, ReFrames                : 5 frames\r\nCodec ID                                 : avc1\r\nCodec ID/Info                            : Advanced Video Coding\r\nDuration                                 : 41mn 58s\r\nBit rate                                 : 1 358 Kbps\r\nMaximum bit rate                         : 4 413 Kbps\r\nWidth                                    : 720 pixels\r\nHeight                                   : 404 pixels\r\nDisplay aspect ratio                     : 16:9\r\nFrame rate mode                          : Constant\r\nFrame rate                               : 23.976 fps\r\nColor space                              : YUV\r\nChroma subsampling                       : 4:2:0\r\nBit depth                                : 8 bits\r\nScan type                                : Progressive\r\nBits/(Pixel*Frame)                       : 0.195\r\nStream size                              : 408 MiB (91%)\r\nWriting library                          : x264 core 148 r2638 7599210\r\nEncoding settings                        : cabac=1 / ref=5 / deblock=1:0:0 / analyse=0x3:0x113 / me=umh / subme=8 / psy=1 / psy_rd=1.00:0.00 / mixed_ref=1 / me_range=16 / chroma_me=1 / trellis=1 / 8x8dct=1 / cqm=0 / deadzone=21,11 / fast_pskip=1 / chroma_qp_offset=-2 / threads=12 / lookahead_threads=2 / sliced_threads=0 / nr=0 / decimate=1 / interlaced=0 / bluray_compat=0 / constrained_intra=0 / bframes=3 / b_pyramid=2 / b_adapt=2 / b_bias=0 / direct=3 / weightb=1 / open_gop=0 / weightp=2 / keyint=250 / keyint_min=25 / scenecut=40 / intra_refresh=0 / rc_lookahead=50 / rc=crf / mbtree=1 / crf=22.0 / qcomp=0.60 / qpmin=0 / qpmax=69 / qpstep=4 / ip_ratio=1.40 / aq=1:1.00\r\nEncoded date                             : UTC 2015-11-25 04:04:12\r\nTagged date                              : UTC 2015-11-25 04:04:55\r\nColor range                              : Limited\r\nMatrix coefficients                      : BT.709\r\n\r\nAudio\r\nID                                       : 2\r\nFormat                                   : AAC\r\nFormat/Info                              : Advanced Audio Codec\r\nFormat profile                           : LC\r\nCodec ID                                 : 40\r\nDuration                                 : 41mn 58s\r\nBit rate mode                            : Variable\r\nBit rate                                 : 132 Kbps\r\nMaximum bit rate                         : 153 Kbps\r\nChannel(s)                               : 2 channels\r\nChannel positions                        : Front: L R\r\nSampling rate                            : 48.0 KHz\r\nCompression mode                         : Lossy\r\nStream size                              : 39.6 MiB (9%)\r\nLanguage                                 : English\r\nEncoded date                             : UTC 2015-11-25 04:04:54\r\nTagged date                              : UTC 2015-11-25 04:04:55\r\n\r\nText\r\nID                                       : 3\r\nFormat                                   : Timed Text\r\nCodec ID                                 : tx3g\r\nDuration                                 : 41mn 58s\r\nBit rate mode                            : Variable\r\nBit rate                                 : 184 bps\r\nStream size                              : 56.4 KiB (0%)\r\nLanguage                                 : English\r\nEncoded date                             : UTC 2015-11-25 04:04:55\r\nTagged date                              : UTC 2015-11-25 04:04:55","torrent":{"xt":"urn:btih:b3e2a9e7b8e47ddbd93ede03e11558784155a8e8","amp;dn":"The.Curse.of.Oak.Island.S03E03.Time.to.Dig.HDTV.x264-W4F","amp;tr":["udp%3A%2F%2Ftracker.leechers-paradise.org%3A6969","udp%3A%2F%2Fzer0day.ch%3A1337","udp%3A%2F%2Fopen.demonii.com%3A1337","udp%3A%2F%2Ftracker.coppersurfer.tk%3A6969","udp%3A%2F%2Fexodus.desync.com%3A6969"],"infoHash":"b3e2a9e7b8e47ddbd93ede03e11558784155a8e8","infoHashBuffer":{"type":"Buffer","data":[179,226,169,231,184,228,125,219,217,62,222,3,225,21,88,120,65,85,168,232]},"announce":[],"urlList":[]}}